<?xml version="1.0" encoding="UTF-8" standalone="no"?>
<!-- Created with Inkscape (http://www.inkscape.org/) -->

<svg
   version="1.1"
   id="svg1"
   width="1862.6008"
   height="988.69659"
   viewBox="0 0 1862.6008 988.69659"
   xmlns="http://www.w3.org/2000/svg"
   xmlns:svg="http://www.w3.org/2000/svg">
  <defs
     id="defs1" />
  <g
     id="g1"
     transform="translate(-66.65371,-514.71478)">
    <path
       id="path1"
       style="display:inline;fill:#f29224;fill-opacity:1"
       d="m 659.92969,651 -42.21485,0.0156 c -23.21795,0.009 -47.61484,0.45949 -54.21484,1.00196 -38.11382,3.13267 -75.07336,14.98092 -102,32.69726 -49.66252,32.67538 -75.34816,84.43963 -70.54102,142.16016 3.45912,41.53448 17.75623,71.36026 48.29297,100.75195 28.57985,27.50817 71.2377,46.09624 117.74805,51.3086 5.225,0.58556 10.85,1.22533 12.5,1.42187 1.65,0.19654 15.58975,0.3093 30.97656,0.25 L 628.45117,980.5 647.21289,940 c 10.31852,-22.275 18.76644,-41.05902 18.77344,-41.74219 0.0102,-0.97011 -9.18786,-1.24037 -42.00586,-1.23437 -45.51395,0.008 -54.66599,-0.7076 -71.79102,-5.61133 -23.81259,-6.8187 -44.53399,-22.42494 -53.69336,-40.4375 -5.42518,-10.66902 -6.99632,-18.41937 -6.98632,-34.47461 0.0103,-17.35091 1.27651,-23.46029 7.49218,-36.14453 4.63592,-9.46049 15.02855,-21.26429 24.2168,-27.50391 13.98079,-9.49418 31.51519,-15.59724 51.08398,-17.77929 5.28994,-0.58986 18.74903,-1.09003 29.90821,-1.11133 l 20.28906,-0.0391 9.89844,-23.21094 c 5.44433,-12.76597 12.47776,-29.2859 15.6289,-36.7109 3.15113,-7.425 6.66696,-15.6375 7.81446,-18.25 z m 96.61133,156 c -0.0139,0.002 -0.0263,0.009 -0.0371,0.0215 -0.26537,0.31118 -0.5002,0.6073 -0.71289,0.9004 0.32526,-0.27402 0.64696,-0.55425 0.96484,-0.83985 -0.0705,-0.0164 -0.15469,-0.091 -0.21484,-0.082 z m -96.00782,17.04297 c -0.0309,0.072 -0.0543,0.14458 -0.0254,0.21094 v 0.002 h 0.002 l 0.002,0.002 v 0.002 0.002 l 0.002,0.002 v 0.002 l 0.002,0.002 0.002,0.002 h 0.002 0.002 v 0.002 h 0.002 0.002 l 0.002,-0.002 h 0.002 l 0.002,-0.002 0.002,-0.002 0.002,-0.002 c -2.8e-4,-0.0729 -6.5e-4,-0.14689 -0.002,-0.2207 z m -0.006,0.82812 c -0.0209,0.19634 -0.042,0.39152 -0.0625,0.58789 -0.0223,0.21449 -0.0926,0.77685 -0.0918,0.83985 h 0.002 c 0.002,-0.007 0.007,-0.0233 0.0117,-0.0469 0.0775,-0.4184 0.12281,-0.88394 0.14062,-1.38086 z m -59.96484,16.27735 c -0.11855,0.34395 -0.172,0.54432 -0.16016,0.58594 v 0.002 l 0.002,0.002 0.002,0.002 c 0.0309,0.0216 0.1867,0.0223 0.45703,0.004 -0.10131,-0.19752 -0.20195,-0.39674 -0.30078,-0.5957 z M 760.26367,897 738.88086,924.57812 c -11.75984,15.16747 -25.80112,33.27996 -31.20313,40.25 -5.40201,6.97006 -10.25532,13.45938 -10.78515,14.42188 -0.91069,1.6543 1.36224,1.75 41.57226,1.75 H 781 v -42 -42 h -10.36914 z" />
    <path
       id="path2"
       style="display:inline;fill:#575859;fill-opacity:1"
       d="M 950.60742,651.22461 841.7168,651.5 827.25977,671 c -7.95136,10.725 -21.57263,29.27125 -30.26954,41.21289 l -15.8125,21.71094 133.16016,0.33984 c 148.23101,0.37807 139.56481,-0.0279 154.34761,7.2461 13.0509,6.42188 18.3247,15.18695 18.3047,30.42187 -0.01,5.82737 -0.547,8.71861 -2.3476,12.56836 -4.0871,8.73789 -13.9483,16.11373 -26.6426,19.92969 -14.6022,4.3895 -19.2668,4.55845 -126.59766,4.56445 L 829.30664,809 815.15234,827.93555 801,846.86914 V 913.93555 981 h 47.99023 47.99024 l 0.25976,-45.75 0.25977,-45.75 52.66992,-0.10938 c 28.96824,-0.0598 53.05248,0.16518 53.52148,0.5 0.4691,0.33481 2.8959,3.08438 5.3926,6.10938 4.825,5.84582 48.9675,58.79871 62.4433,74.90625 l 8.0274,9.59375 63.2226,0.25781 63.2207,0.25781 -49.5117,-54.69531 c -27.2314,-30.08236 -49.1672,-54.97018 -48.748,-55.30469 0.4193,-0.33446 2.5617,-1.20454 4.7617,-1.93359 26.5331,-8.79275 54.176,-32.12532 63.5703,-53.6582 7.4233,-17.01495 10.0219,-29.8563 10.0059,-49.42383 -0.014,-16.49967 -1.8916,-27.47362 -6.9356,-40.50781 -14.9275,-38.57476 -53.8429,-64.58726 -109.1406,-72.95313 -9.1955,-1.39113 -24.0299,-1.5551 -119.39258,-1.31445 z m 228.98238,34.87891 c -0.061,7.3e-4 -0.1,0.0197 -0.2441,0.0801 0.1084,-0.0262 0.2155,-0.0521 0.3184,-0.0762 -0.031,-0.003 -0.054,-0.004 -0.074,-0.004 z" />
    <path
       id="path3"
       style="display:inline;fill:#575859;fill-opacity:1"
       d="m 1291,651.22852 -156.5,0.27148 5.9766,3.45312 c 16.0401,9.26731 35.4905,26.73887 44.0254,39.54688 5.9767,8.969 13.9782,25.40211 15.9921,32.8418 l 1.7793,6.57422 117.1133,0.3496 c 128.8853,0.38446 123.2807,0.11448 137.0723,6.56836 7.9325,3.71204 13.0111,8.23789 16.3555,14.57618 2.4207,4.58759 2.6855,6.12628 2.6855,15.58984 0,8.856 -0.3394,11.13329 -2.166,14.54492 -3.9856,7.44399 -12.9194,14.26019 -23.7363,18.10938 -13.6019,4.84025 -9.5807,4.68086 -133.4629,5.28125 l -116.3672,0.56445 -3.7481,8.69727 c -10.5086,24.38672 -29.1073,44.62789 -54.5625,59.38085 -1.6549,0.95912 3.2159,6.72584 44.0918,52.20313 l 45.9512,51.12305 27.7402,0.0469 27.7403,0.0488 0.2597,-45.75 0.2598,-45.75 52.6055,-0.20898 52.6074,-0.20899 38.3105,45.95899 L 1469.334,981 h 62.834 c 34.5581,0 62.832,-0.22758 62.832,-0.50586 0,-0.27828 -10.2375,-11.88477 -22.75,-25.79297 -64.6108,-71.81778 -74.25,-82.65221 -74.25,-83.45312 0,-0.47838 2.2609,-1.4497 5.0254,-2.15821 6.4636,-1.65657 21.6321,-9.04172 29.9687,-14.59179 8.0042,-5.32882 21.4335,-18.96725 26.5079,-26.91993 11.0566,-17.32789 16.4841,-37.30584 16.4941,-60.69726 0.011,-31.19531 -9.7513,-55.91253 -29.9688,-75.88086 -20.8073,-20.55086 -49.0686,-32.97372 -87.5273,-38.47266 -9.6981,-1.38667 -29.5222,-1.53893 -167.5,-1.29882 z" />
    <path
       id="path4"
       style="display:inline;fill:#f29224;fill-opacity:1"
       d="m 857.75781,1075.3926 c -10.90944,0.2929 -21.69221,1.0244 -29.48047,2.1172 -50.52993,7.0898 -80.29371,31.3857 -86.35351,70.4902 -1.83809,11.8614 -0.69372,37.8075 2.05078,46.5 4.66541,14.7765 11.30426,24.8696 22.83398,34.7148 16.34919,13.9605 36.56261,21.591 66.93946,25.2676 22.08472,2.673 60.92949,1.6329 79.22265,-2.1211 18.07744,-3.7096 40.71529,-13.3057 50.5293,-21.4179 11.07346,-9.1533 20.31542,-24.296 24.68359,-40.4434 3.16934,-11.716 3.19337,-38.4124 0.0449,-50.0703 -10.69574,-39.6041 -42.22987,-59.9038 -100.22852,-64.5235 -8.29661,-0.6608 -19.33274,-0.8065 -30.24219,-0.5136 z M 522.16797,1078 l -13.88281,18.75 c -7.63608,10.3125 -14.90463,20.2125 -16.15235,22 l -2.26953,3.25 H 567.25 c 87.61666,0 84.7865,-0.2252 92.39648,7.3848 3.21245,3.2125 4.31936,5.199 4.84571,8.709 1.44458,9.6331 -3.55912,17.8233 -13.15039,21.5253 -4.55527,1.7582 -9.44629,1.8854 -82.5918,2.1543 L 491,1162.0586 V 1207.5293 1253 h 27.5 27.5 v -24 -24 l 37.25,0.062 37.25,0.059 20,23.9043 20,23.9043 34.25,0.037 c 18.8375,0.02 34.25,-0.2323 34.25,-0.5625 0,-0.3303 -3.03499,-4.0428 -6.74414,-8.25 -14.11063,-16.0056 -31.92715,-35.9091 -37.9707,-42.418 -3.45661,-3.7229 -6.28516,-7.1625 -6.28516,-7.6425 0,-0.4801 1.2375,-1.1772 2.75,-1.5489 5.99534,-1.4731 17.37059,-7.7985 22.57031,-12.5508 C 714.61675,1169.67 720,1156.8187 720,1140.1758 c 0,-17.8302 -4.30701,-28.7056 -15.91016,-40.1719 -5.7818,-5.7136 -9.6144,-8.4862 -16.08984,-11.6387 -20.10944,-9.79 -25.64964,-10.3454 -102.66602,-10.3554 z m 494.71483,0 0.3613,57.75 c 0.3526,56.2985 0.4165,57.9337 2.586,65.0879 6.0004,19.7879 16.1544,31.5283 35.6699,41.2422 11.507,5.7277 27.2266,10.041 44.6367,12.25 13.5636,1.7209 45.0363,2.0792 56.8887,0.6465 39.822,-4.8137 66.8372,-19.2864 77.4238,-41.4766 7.0244,-14.7236 6.9278,-13.7017 7.3028,-77.75 l 0.3398,-57.75 H 1215.0449 1188 l -0.01,13.25 c -0.04,69.5852 -0.6069,94.3599 -2.2714,99.3359 -3.221,9.6282 -11.9515,15.8265 -26.8926,19.0899 -10.1207,2.2104 -45.2014,2.2413 -55.8282,0.049 -11.2084,-2.3127 -18.8348,-5.5313 -23.6679,-9.9863 -7.3685,-6.7917 -7.3321,-6.4609 -7.3321,-67.9199 V 1078 h -27.5585 z m 287.5449,0 -3.9238,5.25 c -2.1578,2.8875 -9.4408,12.7875 -16.1836,22 l -12.2598,16.75 h 76.2891 c 83.2802,0 82.9039,-0.025 89.7461,5.7324 3.8512,3.2406 6.8613,9.5002 6.8613,14.2676 0,5.0221 -3.1733,11.3015 -7.3027,14.4512 -7.3499,5.6056 -6.4462,5.5488 -88.8125,5.5488 H 1273 v 45.5156 45.5156 l 27.25,-0.2656 27.25,-0.2676 0.2676,-23.75 0.2695,-23.75 h 52.2305 c 40.5305,-10e-4 54.03,-0.318 60.2578,-1.414 30.6801,-5.3995 51.4102,-22.1822 57.0605,-46.1973 0.9362,-3.9791 1.6136,-11.1088 1.6036,-16.8867 -0.054,-32.7951 -20.9164,-53.8714 -59.9297,-60.541 -10.5292,-1.8001 -16.4583,-1.959 -73.1465,-1.959 z m 353.418,0.252 c -83.7609,0.3253 -84.4054,0.3428 -92.8223,2.5761 -28.8268,7.6487 -43.9528,25.4252 -44.0078,51.7129 -0.041,19.5645 8.8872,33.9382 26.3653,42.4434 14.6447,7.1263 15.9361,7.2511 81.7968,7.9199 57.5416,0.5843 58.7331,0.6376 61.5,2.6934 3.7301,2.7715 5.2887,6.0067 5.3067,11.0175 0.016,4.5916 -2.4919,8.5633 -6.8223,10.7989 -2.1588,1.1145 -15.7619,1.4532 -71.9961,1.7871 l -69.334,0.4101 -7,8.9453 c -9.1546,11.6977 -24.2751,31.6038 -25.2129,33.1934 -0.9717,1.6472 161.3734,1.8165 176.0176,0.1836 33.5898,-3.7455 50.7317,-16.1553 55.8516,-40.4336 4.03,-19.11 -0.089,-37.9098 -10.5977,-48.373 -5.3761,-5.3527 -17.6869,-11.416 -27.8906,-13.7364 -6.4897,-1.4757 -15.38,-1.7549 -66,-2.0781 -39.5002,-0.2523 -59.4035,-0.7327 -61.2832,-1.4785 -9.6004,-3.8092 -9.0064,-18.3076 0.9199,-22.4551 2.6846,-1.1217 14.9211,-1.3789 65.6211,-1.3789 h 62.3203 l 15.461,-21.0156 c 8.5035,-11.5589 15.6163,-21.4753 15.8066,-22.0371 0.2342,-0.694 -26.8867,-0.9171 -84,-0.6953 z m -1265.01172,0.01 c -67.09702,0.3674 -70.75987,0.4832 -79.60156,2.4883 -13.02931,2.9547 -18.43176,4.8259 -28.73242,9.9531 -29.26161,14.5651 -45.42484,36.3999 -48.33594,65.2969 -2.56157,25.4274 4.04933,45.8833 20.31836,62.873 10.00125,10.4443 17.42481,15.7848 30.65625,22.0508 11.55704,5.4731 21.38623,8.4633 34.5293,10.5078 6.75437,1.0507 23.94566,1.3967 73.08203,1.4707 L 459,1253 v -54.5 -54.5 h -54.38477 -54.38476 l -1.55859,2.3789 c -0.85717,1.3082 -7.24776,9.669 -14.20118,18.5801 -6.95343,8.9112 -12.4159,16.4298 -12.13867,16.707 0.27724,0.2772 18.23533,0.4479 39.90625,0.3809 21.67091,-0.067 40.15785,0.1668 41.08203,0.5215 1.45355,0.5578 1.67969,2.3861 1.67969,13.539 V 1209 h -35.76953 c -33.11137,0 -36.32712,-0.1544 -43.24805,-2.0723 -9.46339,-2.6224 -15.92544,-6.126 -22.70312,-12.3105 -6.90596,-6.3016 -9.97987,-11.6621 -11.86133,-20.6856 -1.89006,-9.0648 -0.82484,-17.3481 3.37891,-26.2714 5.2037,-11.0459 14.26903,-18.0155 29.73242,-22.8594 6.65904,-2.0859 9.20917,-2.2083 56.9707,-2.7422 l 50,-0.5586 7.5,-10.1719 c 13.17958,-17.8737 22.47569,-30.6498 23.33398,-32.0703 0.70686,-1.1699 -9.88477,-1.3225 -69.5,-0.9961 z m 472.54688,41.7422 c 35.83939,0.01 52.74516,4.4789 62.99414,16.6641 11.40354,13.5577 11.20832,45.4365 -0.35938,58.5781 -8.06164,9.1586 -21.87944,14.0938 -44.01562,15.7227 -7.425,0.5462 -15.75,0.8928 -18.5,0.7695 -23.33853,-1.0459 -31.93075,-1.8476 -38.66992,-3.6094 C 803.93825,1202.1439 795,1190.4617 795,1166.5293 c 0,-17.7309 4.56622,-28.5474 15.11914,-35.8086 11.71159,-8.0584 25.44983,-10.7268 55.26172,-10.7168 z" />
    <path
       id="path5"
       style="display:inline;fill:#575859;fill-opacity:1"
       d="m 1093,1296.7656 v 30.4512 c 0,16.7479 0.3375,30.7991 0.75,31.2266 0.4125,0.4276 7.6403,0.5159 16.0625,0.1953 13.7562,-0.5237 15.9222,-0.8558 21.3008,-3.2696 12.1034,-5.4316 18.5475,-16.282 17.6679,-29.748 -0.7713,-11.8079 -6.749,-20.4075 -17.6953,-25.459 -5.1144,-2.3602 -6.959,-2.6137 -21.8359,-2.9883 z m 407,0.016 v 31.2168 31.2168 l 18.75,-0.4082 c 16.9219,-0.3685 19.2607,-0.6333 23.9922,-2.7265 7.7522,-3.4297 11.17,-10.0619 9.3535,-18.1465 -1.0233,-4.5544 -4.2792,-8.6383 -8.0469,-10.0918 l -2.4511,-0.9453 2.6074,-2.1992 c 3.6567,-3.0831 4.7949,-5.8103 4.7949,-11.4844 0,-6.0945 -2.8715,-10.6936 -8.5,-13.6152 -3.5246,-1.8294 -6.1692,-2.1209 -22.25,-2.4473 z m -921,0.025 v 31.1446 31.1445 l 6.25,-0.2988 6.25,-0.2969 0.28711,-9.75 0.28516,-9.75 h 5.31054 5.3125 l 6.65821,10 6.6582,10 h 7.57617 c 4.16779,0 7.42943,-0.3375 7.24609,-0.75 -0.18333,-0.4125 -3.48398,-5.4358 -7.33398,-11.1621 -4.85207,-7.2168 -6.58595,-10.5504 -5.65234,-10.8652 2.69427,-0.9083 8.4829,-6.7716 9.80078,-9.9258 1.76364,-4.2208 1.73367,-14.6622 -0.0527,-18.0957 -1.7614,-3.3853 -5.07972,-6.4325 -9.5957,-8.8106 -2.92394,-1.5398 -6.42144,-1.903 -21.25,-2.2129 z m 139.50781,0.074 c -4.28188,0.096 -8.65041,0.6703 -11.72461,1.6914 -3.77252,1.253 -6.84567,3.3317 -10.84765,7.3379 -6.62295,6.63 -8.93555,12.3612 -8.93555,22.1425 0,15.2511 8.21421,26.5244 22.18555,30.4473 10.48808,2.9448 23.52471,0.064 30.57226,-6.7559 l 3.25781,-3.1523 -4.11914,-4.1973 -4.11914,-4.1972 -4.3789,3.0879 c -8.90356,6.2758 -20.58103,4.4999 -26.41602,-4.0157 C 701.87104,1336.1881 701.5,1334.5026 701.5,1328 c 0,-6.5026 0.37104,-8.1881 2.48242,-11.2695 6.17395,-9.0103 19.48645,-10.2765 27.62891,-2.627 l 2.13672,2.0078 4.11914,-4.8047 c 2.26564,-2.6433 4.12295,-5.1217 4.12695,-5.5078 0.0111,-1.2029 -8.30676,-6.448 -12.27734,-7.7422 -2.73233,-0.8905 -6.92711,-1.272 -11.20899,-1.1757 z M 840,1296.9082 v 30.3789 c 0,16.7085 0.32856,30.7075 0.73047,31.1094 0.40191,0.4019 10.18941,0.5312 21.75,0.2871 l 21.01953,-0.4434 0.30078,-5.6191 0.29883,-5.6211 h -15.0332 -15.03125 l -0.26758,-24.75 -0.26758,-24.75 -6.75,-0.2949 z m 747.0293,0 -6.7656,0.2949 -6.7637,0.2969 -0.2656,29.4883 c -0.146,16.2186 -0.04,30.0785 0.2363,30.7988 0.3581,0.9336 2.303,1.224 6.7656,1.0117 l 6.2637,-0.2988 0.2637,-30.7969 z M 288,1296.9629 l -22.75,0.2676 -22.75,0.2695 -0.26562,29.4883 c -0.14603,16.2186 -0.0437,30.0653 0.22656,30.7695 0.38363,0.9995 5.48363,1.2216 23.26562,1.0117 L 288.5,1358.5 l 0.29883,-5.7266 0.29883,-5.7246 -16.79883,-0.2754 L 255.5,1346.5 l 0.12305,-6 0.12304,-6 14.12696,-0.2773 L 284,1333.9453 V 1327.9727 1322 h -14 c -12.62208,0 -14.01166,-0.1722 -14.11719,-1.75 -0.11745,-1.7563 -0.0847,-9.0957 0.0469,-10.5 C 255.96833,1309.3375 263.2,1309 272,1309 h 16 v -6.0195 z m 221,0 v 6.5176 6.5176 h 9 9 v 23.9492 23.9512 l 5.75,0.3613 c 3.1625,0.1985 6.0875,0.4448 6.5,0.5488 0.4125,0.104 0.75,-10.8355 0.75,-24.3105 V 1310 h 8.88281 c 9.9727,0 9.85127,0.1011 9.70117,-8 l -0.084,-4.5 -24.75,-0.2676 z M 310,1297 v 31 31 h 21.5 21.5 v -5.9395 -5.9375 l -4.25,-0.5957 c -2.3375,-0.3272 -8.975,-0.4665 -14.75,-0.3105 l -10.5,0.2832 -0.26758,-24.75 -0.26758,-24.75 h -6.48242 z m 62,0 v 30.334 c 0,16.6834 0.3375,30.6791 0.75,31.1015 0.4125,0.4226 10.875,0.5868 23.25,0.3672 l 22.5,-0.3984 0.29883,-5.6777 0.29883,-5.6778 -16.79883,-0.2754 L 385.5,1346.5 385.20312,1340.25 384.9043,1334 H 399.45312 414 v -5.9727 -5.9726 l -14.25,-0.2774 -14.25,-0.2773 v -6 -6 l 16.25,-0.2754 16.25,-0.2734 V 1302.9746 1297 h -23 z m 280,0 -0.0664,25.5 c -0.0367,14.025 -0.0664,27.75 -0.0664,30.5 0,2.75 0.0297,5.2457 0.0664,5.5469 0.0367,0.301 2.87891,0.4138 6.31641,0.25 l 6.25,-0.2969 0.26367,-30.75 0.26563,-30.75 h -6.51563 z m 130.88672,0 -1.83399,4.25 C 773.91649,1317.78 757,1358.0608 757,1358.5234 c 0,0.3119 3.02538,0.4341 6.72266,0.2715 l 6.72265,-0.2949 2.70703,-6.5 2.70704,-6.5 13.40039,-0.2773 13.40234,-0.2774 2.75781,7.0274 2.75586,7.0273 h 6.2461 c 3.43473,0 6.48574,-0.2397 6.77929,-0.5332 0.29355,-0.2936 -4.95807,-13.4561 -11.66992,-29.25 -6.71186,-15.794 -12.48817,-29.5043 -12.83594,-30.4668 -0.51508,-1.4256 -1.85432,-1.75 -7.2207,-1.75 z M 1015,1297 v 31.0469 31.0488 l 6.25,-0.2988 6.25,-0.2969 0.5,-18.875 0.5,-18.875 14.5,19.1016 14.5,19.1015 5.75,0.024 5.75,0.023 v -31 -31 h -6.4785 -6.4785 l -0.2715,19.1855 -0.2715,19.1856 -14.3633,-19.1856 L 1026.7754,1297 h -5.8887 z m 191,0 v 31 31 h 6.5 6.5 v -9.5 -9.5 h 8.6348 c 10.5703,0 15.1865,-1.2996 20.3652,-5.7324 6.7215,-5.7533 8.7809,-17.9896 4.4395,-26.3848 -4.1982,-8.1184 -12.3566,-10.8828 -32.1211,-10.8828 z m 69,0 v 31 31 h 14.3496 c 7.892,0 17.812,-0.2926 22.0449,-0.6504 l 7.6953,-0.6504 -0.2949,-5.5996 -0.2949,-5.5996 h -15 -15 l -0.2676,-24.75 -0.2676,-24.75 h -6.4824 z m 61,0 v 20.8184 c 0,23.1833 0.9076,28.4662 5.8164,33.8281 3.2888,3.5924 7.4414,5.9484 12.9004,7.3223 5.02,1.2633 15.1993,0.5109 19.957,-1.4766 4.8171,-2.0122 8.893,-5.8533 11.666,-10.9922 1.9987,-3.704 2.1825,-5.6834 2.4766,-26.75 l 0.3184,-22.75 h -6.5684 -6.5684 v 18.75 c 0,10.3125 -0.4662,20.4084 -1.0292,22.4355 -1.5837,5.7021 -5.9847,8.8145 -12.4649,8.8145 -6.4802,0 -10.8811,-3.1124 -12.4648,-8.8145 -0.563,-2.0271 -1.0293,-12.123 -1.0293,-22.4355 L 1349,1297 h -6.5 z m 77,0 v 30.334 c 0,16.6834 0.3112,30.6432 0.6914,31.0234 0.3802,0.3803 3.3052,0.6136 6.5,0.5176 l 5.8086,-0.1738 0.059,-19.6016 c 0.047,-15.5229 0.3066,-19.2242 1.25,-17.7949 0.6552,0.9926 4.3414,6.5855 8.1914,12.4277 3.85,5.8422 7.45,10.7558 8,10.9199 0.55,0.1641 4.825,-5.3534 9.5,-12.2617 l 8.5,-12.5605 0.5,19.334 0.5,19.3359 6.25,0.2969 6.25,0.2988 V 1328.0469 1297 h -7.0352 -7.0332 l -4.7168,7.4258 c -2.5936,4.0847 -6.4412,10.2203 -8.5507,13.6328 l -3.836,6.2031 -8.1484,-13.6308 -8.1504,-13.6309 h -7.2656 z m 239,0 v 19.1406 19.1406 l -14.25,-18.8906 -14.25,-18.8906 h -6 -6 l -0.2656,29.4883 c -0.146,16.2186 -0.048,30.0561 0.2187,30.75 0.3154,0.8217 2.5791,1.2617 6.4942,1.2617 h 6.0097 l 0.2715,-19.4805 0.2715,-19.4804 14.875,19.4804 14.877,19.4805 h 5.373 5.375 v -31 -31 h -6.5 z m 63.459,0.027 c -4.3614,0.021 -6.1348,0.5917 -10.1231,2.4141 -11.4743,5.2433 -17.354,13.867 -18.1093,26.5586 -0.5416,9.1001 0.7456,14.2852 5.1289,20.6621 4.0285,5.8608 10.8693,10.3005 18.4824,11.9941 9.4089,2.0932 19.5004,0.2657 28.8789,-5.2304 l 4.2832,-2.5098 0.1367,-9.209 c 0.076,-5.0643 0.188,-11.232 0.25,-13.707 l 0.1133,-4.5 -13.25,-0.2793 -13.25,-0.2793 v 6.0293 6.0293 h 7 7 v 4.5508 c 0,4.3091 -0.1994,4.636 -3.75,6.1445 -2.0625,0.8762 -6.3147,1.6032 -9.4492,1.6152 -10.6127,0.042 -17.8008,-7.511 -17.8008,-18.705 0,-3.0111 0.4795,-6.7427 1.0645,-8.291 1.303,-3.4486 5.511,-8.0101 9.1367,-9.9043 5.3054,-2.7716 16.1395,-1.126 20.8886,3.1718 1.5076,1.3644 2.0512,1.064 5.8125,-3.209 2.2823,-2.5929 4.0019,-5.1605 3.8204,-5.705 -0.1815,-0.5445 -2.7701,-2.3682 -5.752,-4.0528 -4.7949,-2.709 -6.5406,-3.107 -15.1094,-3.4511 -2.2068,-0.089 -3.9485,-0.1438 -5.4023,-0.1368 z m -1246.47658,0.016 c -4.63884,0.014 -9.31508,0.5321 -12.29883,1.5488 -6.39771,2.1799 -13.86839,9.1367 -16.7832,15.6289 -3.36845,7.5027 -3.39565,21.1792 -0.0566,27.9512 4.16057,8.4382 11.67151,14.4789 20.89063,16.8008 6.457,1.6262 16.0878,0.3895 22.83789,-2.9336 3.34012,-1.6443 6.90987,-3.914 7.93164,-5.043 1.82933,-2.0214 1.78935,-2.1213 -2.52149,-6.5137 -4.32007,-4.4019 -4.40412,-4.4351 -6.42969,-2.5879 -5.45473,4.9745 -15.54286,6.7235 -21.35156,3.7012 -8.9098,-4.6358 -12.88386,-17.4152 -8.24414,-26.5098 5.33585,-10.4592 16.23785,-12.9927 27.03125,-6.2832 l 4.61133,2.8653 3.69922,-4.2539 c 2.03524,-2.3396 3.70117,-4.7171 3.70117,-5.2832 0,-1.621 -6.21452,-5.9423 -10.94531,-7.6114 -2.83256,-0.9996 -7.43343,-1.4903 -12.07227,-1.4765 z m 487.85547,0.457 -3.80664,9 C 943.179,1329.7974 932,1357.1995 932,1358.0527 c 0,0.5208 2.88571,0.9473 6.41211,0.9473 h 6.41211 l 2.74609,-7 2.7461,-7 H 963.5 976.68359 l 2.7461,7 2.74609,7 h 6.2461 c 3.43472,0 6.48557,-0.2395 6.77929,-0.5332 0.29373,-0.2938 -4.27716,-11.8813 -10.15625,-25.75 -5.87909,-13.8688 -11.58996,-27.4668 -12.6914,-30.2168 l -2.00196,-5 h -6.75781 z M 1107,1309 l 5.25,0.023 c 11.2731,0.051 16.7937,2.7428 20.5,9.9961 2.7614,5.4042 2.8893,11.9749 0.3438,17.5801 -2.3529,5.1808 -6.5031,8.1495 -13.1504,9.4102 -2.8695,0.5442 -6.9552,0.9902 -9.0801,0.9902 H 1107 v -19 z m 406,0 h 9.5 c 10.5019,0 13.5,1.4435 13.5,6.5 0,1.375 -0.9,3.4 -2,4.5 -1.7193,1.7193 -3.3333,2 -11.5,2 h -9.5 v -6.5 z m -288.209,0.01 c 5.5356,-0.1165 11.6951,1.3845 13.8438,3.5332 3.1868,3.1872 3.1654,8.4136 -0.049,12.1504 v 0 c -2.2393,2.6034 -3.0357,2.8314 -11.0391,3.1601 l -8.6269,0.3555 0.289,-9.3555 0.2891,-9.3535 2.9707,-0.3379 c 0.7519,-0.085 1.5295,-0.1357 2.3203,-0.1523 z m -622.47459,0.1347 c 1.69932,0.06 3.35531,0.1864 4.55859,0.3653 8.39165,1.2477 11.74465,8.331 6.71289,14.1836 -2.28282,2.6553 -2.92948,2.8251 -12.04101,3.1543 l -9.62696,0.3476 0.28906,-8.8476 0.29102,-8.8477 5,-0.3203 c 1.375,-0.088 3.11709,-0.095 4.81641,-0.035 z m 361.00781,4.1973 c 0.3592,-0.3592 7.67578,17.6827 7.67578,18.9277 0,0.4018 -3.5455,0.7305 -7.87891,0.7305 h -7.8789 l 3.87109,-9.6602 c 2.1295,-5.3127 4.02454,-9.8116 4.21094,-9.998 z m -174.2168,0.3047 c 0.71408,-0.01 2.9604,5.3206 7.64844,18.1035 0.34283,0.9348 -1.58302,1.25 -7.63477,1.25 h -8.09179 l 1.88281,-4.75 c 1.03557,-2.6125 2.67065,-6.775 3.63477,-9.25 0.9641,-2.475 2.06897,-4.8595 2.45312,-5.2988 0.0312,-0.036 0.0661,-0.054 0.10742,-0.055 z M 1513,1332.7793 l 10.9082,0.373 c 12.0678,0.4131 15.1052,1.7726 15.0762,6.752 -0.019,3.1546 -0.8122,4.4421 -3.668,5.9453 -1.2262,0.6455 -6.5989,1.1504 -12.25,1.1504 H 1513 v -7.1113 z" />
    <path
       id="path6"
       style="display:inline;fill:#f29224;fill-opacity:1"
       d="m 681.26758,651 -5.57813,13.25 c -3.06836,7.2875 -11.04621,25.85 -17.72851,41.25 -24.99982,57.61451 -58.02061,135.7743 -57.55664,136.23828 0.26441,0.26441 17.04522,-2.24147 37.28906,-5.56836 74.55907,-12.25309 83.22325,-13.58535 83.89648,-12.91211 0.64138,0.64138 -10.18368,24.68668 -42.8789,95.24219 C 651.40704,977.42115 623,1039.7 623,1040.6406 c 0,0.2447 8.01234,-9.8115 17.80469,-22.3476 39.59903,-50.6946 73.53424,-94.01447 90.70703,-115.793 34.78154,-44.10996 62.20592,-79.1699 80.76367,-103.25 l 18.6875,-24.25 -3.73047,0.0137 c -2.05242,0.008 -11.38242,0.44958 -20.73242,0.98047 -60.95425,3.46095 -75.90521,4.24951 -91.75195,4.8418 -9.76311,0.36491 -17.74624,0.43906 -17.74024,0.16406 0.006,-0.275 6.02709,-10.85 13.38086,-23.5 l 13.3711,-23 16.51171,-0.27344 16.51368,-0.27344 21.30273,-29.22656 C 789.80442,688.65185 802.95815,670.55 807.31836,664.5 c 4.36021,-6.05 8.37812,-11.5625 8.92773,-12.25 0.79748,-0.99754 -12.73317,-1.25 -66.99023,-1.25 z" />
    <rect
       style="fill:#575859;fill-opacity:0"
       id="rect45"
       width="1862.6008"
       height="988.69666"
       x="66.653709"
       y="514.71478" />
  </g>
</svg>
